<?xml version="1.0" encoding="utf-8"?>
<!-- Generator: Adobe Illustrator 25.2.0, SVG Export Plug-In . SVG Version: 6.00 Build 0)  -->
<svg version="1.1" id="Layer_1" xmlns="http://www.w3.org/2000/svg" xmlns:xlink="http://www.w3.org/1999/xlink" x="0px" y="0px"
	 viewBox="0 0 327.94 253.73" style="enable-background:new 0 0 327.94 253.73;" xml:space="preserve">
<style type="text/css">
	.st0{opacity:0.3;}
	.st1{fill:#FFB000;}
	.st2{fill:#648FFF;}
	.st3{fill:#DC267F;}
	.st4{fill:#231F20;}
	.st5{font-family:'MyriadPro-Bold';}
	.st6{font-size:12px;}
	.st7{fill:none;stroke:#231F20;stroke-width:2;stroke-miterlimit:10;}
</style>
<g class="st0">
	<g>
		<path class="st1" d="M148.41,16.73c-11.69,4.66-22.53,11.07-32.58,18.63c-10.64,8-20.19,17.19-29.98,26.18
			c-8.42,7.73-16.96,15.31-25.53,22.87c-6.04,5.34-12.12,10.65-17.92,16.26c-4.49,4.34-8.78,8.9-12.45,13.95
			c-4.38,6.02-7.3,12.59-8.39,20c-0.8,5.5-0.82,11.12,0.47,16.55c1.3,5.49,4.16,10.13,7.82,14.36c6.51,7.53,14.69,13.12,22.25,19.49
			c1.23,1.03,2.32,2.19,3.51,3.27c1.81,1.64,3.75,3.15,5.72,4.6c5.06,3.75,10.41,7.1,15.82,10.31c11.8,7,24.01,13.31,36.43,19.13
			c4.42,2.08,8.85,4.26,13.43,5.98c3.96,1.49,8.02,2.7,12.12,3.76c8.55,2.21,17.47,3.96,26.33,4.08c3.22,0.04,6.7-0.08,9.74-1.23
			c2.88-1.09,4.53-3.08,5.86-5.81c3.58-7.34,4.36-15.95,5-23.98c1.02-12.59,1.17-25.27,1.3-37.9c0.14-13.61,0.09-27.21,0.09-40.82
			c0-13.94,0.03-27.88,0.35-41.82c0.24-10.87,0.64-21.77,1.95-32.58c0.54-4.51,1.28-9,2.22-13.45c0.88-4.16,1.84-7.99,4.92-10.81
			c2.44-2.24,6.13-3.48,9.41-3.76c4.04-0.34,7.66,0.17,11.5,1.31c4.16,1.23,7.55,3.22,11.26,5.66c4.67,3.08,9.34,6.15,13.88,9.41
			c8.89,6.37,17.07,13.64,23.89,22.22c8.17,10.28,14.47,22.12,18.48,34.61c3.57,11.1,5.34,22.66,6.19,34.26
			c0.9,12.31,0.93,25.05-2.18,37.07c-1.51,5.82-3.71,11.52-6.38,16.9c-1.04,2.09-2.17,4.15-3.41,6.13
			c-0.48,0.77-0.98,1.52-1.51,2.25c-0.48,0.66-0.63,0.85-1.36,1.71c-3.58,4.17-7.16,8.35-10.92,12.36
			c-2.22,2.36-4.72,4.44-7.18,6.53c-3.47,2.94-6.99,5.82-10.6,8.57c-3.3,2.51-6.64,4.9-10.41,6.66c-5.04,2.36-10.65,3.76-16.2,4.14
			c-2.48,0.17-5.01,0.17-7.48-0.14c-0.83-0.11-1.83-0.3-2.71-0.51c-0.46-0.11-0.92-0.24-1.37-0.39c-0.22-0.07-0.43-0.14-0.64-0.22
			c-0.09-0.03-0.84-0.34-0.49-0.19c-3.99-1.77-6.4-5.97-7.94-9.95c-1.97-5.09-2.98-10.53-3.25-15.98
			c-0.63-12.79-0.4-25.63-0.45-38.44c-0.04-11.13,0.05-22.27,0.26-33.4c0.27-13.93,0.73-27.86,1.54-41.77
			c0.74-12.71,1.49-25.59,3.62-38.16c0.43-2.52,0.94-5.04,1.66-7.5c0.56-1.9,0.94-3,1.81-4.55c0.16-0.29,0.33-0.58,0.52-0.86
			c0.09-0.14,0.67-0.93,0.25-0.4c0.38-0.48,0.8-0.93,1.26-1.34c0.13-0.12,0.85-0.63,0.22-0.2c0.21-0.14,0.41-0.29,0.63-0.43
			c0.47-0.29,0.96-0.54,1.45-0.78c0.09-0.04,0.18-0.08,0.27-0.12c0.5-0.23-0.55,0.22-0.04,0.02c0.17-0.07,0.34-0.14,0.52-0.2
			c0.35-0.13,0.7-0.25,1.06-0.36c0.33-0.09,0.67-0.15,1-0.23c0.56-0.15-0.64,0-0.04,0.01c0.21,0,0.42-0.03,0.64-0.03
			c0.18,0,0.36,0.02,0.54,0.02c0.59,0-0.59-0.17,0,0c0.4,0.12,0.8,0.22,1.19,0.34c-0.34-0.11-0.31-0.17,0.1,0.07
			c0.2,0.11,0.4,0.22,0.6,0.34c0.21,0.13,0.4,0.28,0.61,0.42c0.28,0.2-0.48-0.42-0.07-0.05c0.12,0.11,0.25,0.21,0.37,0.32
			c1.16,1.04,1.83,1.91,2.47,2.84c1.11,1.62,2.06,3.34,2.93,5.1c2.32,4.71,3.95,9.68,5.61,14.64c1.98,5.89,3.94,11.74,5.33,17.82
			c2.63,11.49,3.6,23.19,3.6,34.96c0,5.39-0.03,10.8-0.38,16.18c-0.24,3.72-0.52,6.35-1.23,9.85c-1.55,7.6-4.2,14.97-6.32,22.42
			c-0.89,3.1,3.94,4.42,4.82,1.33c2.21-7.73,5-15.4,6.5-23.31c1.74-9.18,1.63-18.67,1.61-27.97c-0.03-11.9-1.21-23.82-3.92-35.41
			c-1.4-5.97-3.37-11.71-5.29-17.52c-1.79-5.42-3.65-10.83-6.22-15.94c-1.54-3.05-3.38-6.22-5.96-8.53
			c-3.23-2.88-7.13-3.59-11.14-2.02c-2.37,0.93-4.54,2.17-6.17,4.17c-2.39,2.93-3.62,6.64-4.51,10.27c-1.44,5.89-2.09,11.98-2.73,18
			c-0.7,6.49-1.24,12.99-1.68,19.5c-1.79,26.12-2.29,52.34-2.27,78.52c0.01,12.46-0.11,24.93,0.26,37.39
			c0.18,5.85,0.55,11.65,2.03,17.34c1.35,5.16,3.46,10.46,7.13,14.43c3.03,3.28,7.12,4.74,11.45,5.33
			c5.46,0.75,11.04,0.31,16.41-0.87c5.47-1.21,10.91-3.29,15.62-6.34c3.57-2.32,6.93-5,10.25-7.65c6.21-4.96,12.2-10.01,17.5-15.94
			c3.49-3.91,7.23-7.77,10.2-12.1c2.88-4.2,5.11-8.84,7.08-13.53c2.33-5.55,4.22-11.28,5.32-17.21c1.14-6.12,1.64-12.36,1.73-18.58
			c0.19-12.52-0.96-25.26-3.48-37.54c-5.07-24.73-17.96-47.73-37.17-64.24c-8.47-7.27-17.86-13.38-27.19-19.48
			c-7.08-4.63-16.2-7-24.62-5.83c-4.04,0.56-7.89,2.11-10.96,4.83c-3.43,3.05-5.08,7.22-6.05,11.6c-2.14,9.63-3.28,19.45-3.91,29.28
			c-0.81,12.63-0.94,25.3-1.05,37.95c-0.12,14.18-0.07,28.37-0.07,42.55c-0.01,13.35-0.06,26.7-0.44,40.05
			c-0.31,10.79-0.47,21.87-2.61,32.43c-0.36,1.8-0.8,3.58-1.36,5.33c-0.24,0.74-0.5,1.46-0.78,2.18c0.01-0.02-0.27,0.65-0.13,0.31
			c0.15-0.34-0.14,0.3-0.13,0.29c-0.18,0.38-0.35,0.75-0.55,1.12c-0.3,0.58-0.63,1.15-1,1.7c-0.1,0.16-0.21,0.31-0.32,0.47
			c0.02-0.03,0.42-0.47,0.15-0.19c-0.2,0.2-0.39,0.39-0.6,0.57c0.59-0.51-0.06,0.01-0.23,0.11c-0.23,0.13-0.47,0.25-0.71,0.36
			c0.67-0.32-0.2,0.06-0.37,0.12c-0.36,0.12-0.72,0.22-1.09,0.31c-0.33,0.08-0.66,0.15-0.99,0.21c-0.16,0.03-1.18,0.18-0.62,0.11
			c-0.86,0.11-1.73,0.17-2.6,0.21c-1.9,0.08-3.8,0.03-5.7-0.09c-4.48-0.28-8.75-0.93-13.16-1.79c-4.5-0.88-8.97-1.96-13.37-3.26
			c-2-0.59-3.98-1.22-5.94-1.92c-0.85-0.3-1.69-0.61-2.53-0.94c-1.05-0.41-1.25-0.49-2.11-0.88c-12.18-5.46-24.18-11.37-35.87-17.81
			c-5.96-3.29-11.85-6.71-17.57-10.4c-4.39-2.83-8.78-5.77-12.66-9.28c-2.68-2.43-5.33-4.76-8.18-7
			c-4.18-3.28-8.34-6.58-12.21-10.22c-3.88-3.64-7.79-7.66-10.13-12.51c-2.26-4.7-2.84-10.1-2.59-15.25
			c0.23-4.74,1.2-9.57,3.04-13.96c1.03-2.45,2.73-5.15,4.34-7.48c0.39-0.56,0.79-1.12,1.2-1.67c0.2-0.27,0.4-0.53,0.6-0.79
			c0.06-0.09,0.29-0.37-0.02,0.03c0.16-0.21,0.33-0.42,0.5-0.63c0.9-1.14,1.84-2.24,2.79-3.33c2.1-2.38,4.31-4.66,6.58-6.88
			c5.77-5.65,11.85-10.98,17.9-16.32c8.5-7.51,17-15.03,25.36-22.69c9.83-9,19.35-18.34,30.02-26.37
			c9.67-7.27,20.12-13.63,31.39-18.13c1.25-0.5,2.13-1.67,1.75-3.08C151.16,17.29,149.67,16.23,148.41,16.73L148.41,16.73z"/>
	</g>
</g>
<g class="st0">
	<g>
		<path class="st2" d="M178.47,194.13c-0.65-17.85-1.11-35.7-1.36-53.56c-0.19-13.7-0.24-27.39-0.18-41.09
			c0.04-10.15,0.16-20.29,0.25-30.44c0.06-7,0.13-14-0.05-21c-0.12-4.6-0.31-9.26-1.17-13.79c-0.53-2.8-1.43-5.73-3.43-7.85
			c-0.92-0.98-2.07-1.66-3.33-2.13c-4.66-1.72-10.29-0.62-14.89,0.74c-6.62,1.96-12.91,5.11-18.84,8.6
			c-5.57,3.27-10.84,6.98-15.83,11.08c-10.93,8.97-20.51,19.38-28.8,30.82c-3.61,4.98-6.97,10.15-9.86,15.59
			c-3.16,5.97-5.94,12.39-6.89,19.13c-0.45,3.15-0.47,6.26,0.14,9.4c0.26,1.33,1.84,2.08,3.08,1.75c1.38-0.38,2.01-1.75,1.75-3.08
			c-0.47-2.38-0.39-5.46,0.05-7.97c0.55-3.17,1.52-6.26,2.7-9.25c2.37-6,5.67-11.65,9.2-17.02c6.68-10.18,14.3-19.37,23.17-27.85
			c9.98-9.54,21.19-17.79,33.81-23.49c5.32-2.4,11.25-4.58,16.95-4.22c0.77,0.05,0.55,0.01,1.32,0.16c0.43,0.08,0.86,0.18,1.28,0.32
			c0.1,0.03,0.21,0.08,0.31,0.11c0.54,0.14-0.52-0.28-0.21-0.09c0.19,0.11,0.4,0.19,0.59,0.31c0.09,0.05,0.18,0.12,0.27,0.17
			c0.5,0.3-0.17,0.05-0.17-0.15c0,0.11,0.87,0.86,0.99,0.98c0.29,0.28-0.43-0.64-0.15-0.19c0.07,0.11,0.15,0.21,0.22,0.32
			c0.15,0.23,0.28,0.46,0.41,0.7c0.13,0.25,0.23,0.54,0.37,0.78c-0.02-0.04-0.26-0.67-0.07-0.14c0.05,0.15,0.11,0.3,0.17,0.45
			c0.23,0.65,0.42,1.31,0.58,1.98c0.19,0.78,0.34,1.56,0.46,2.35c0.04,0.22,0.07,0.44,0.1,0.66c0.02,0.11,0.03,0.21,0.05,0.32
			c0.07,0.47-0.08-0.69-0.03-0.2c0.05,0.47,0.12,0.94,0.16,1.4c0.24,2.27,0.37,4.55,0.46,6.83c0.25,6.4,0.21,12.81,0.17,19.21
			c-0.06,9.34-0.18,18.67-0.25,28.01c-0.09,12.65-0.09,25.31,0.03,37.96c0.15,16.46,0.49,32.92,1,49.37
			c0.14,4.68,0.3,9.36,0.47,14.04C173.58,197.34,178.58,197.36,178.47,194.13L178.47,194.13z"/>
	</g>
</g>
<g class="st0">
	<g>
		<path class="st3" d="M158.84,36.35c-6.9,4.98-13.78,9.99-20.5,15.21c-4.54,3.53-9.04,7.16-13.15,11.19
			c-5.71,5.6-10.16,12-12.3,19.76c-1.13,4.08-2.13,8.53-1.77,12.77c0.42,4.98,2.5,9.5,5.28,13.6c3.56,5.25,7.85,9.99,11.94,14.83
			c5.01,5.92,10.09,11.91,14.41,18.35c2.13,3.18,3.92,6.6,5.55,10.06c0.47,1,0.93,2.01,1.37,3.02c0.21,0.47,0.41,0.94,0.61,1.41
			c0.15,0.36-0.14-0.35,0.01,0.01c0.04,0.1,0.09,0.2,0.13,0.31c0.13,0.31,0.26,0.62,0.38,0.93c0.88,2.15,1.72,4.33,2.51,6.52
			c3.17,8.73,5.77,17.7,7.63,26.79c0.41,2.01,0.79,4.02,1.1,6.05c0.07,0.48,0.15,0.95,0.22,1.43c0.03,0.22,0.06,0.44,0.09,0.65
			c-0.09-0.62,0.02,0.14,0.04,0.35c0.11,0.88,0.21,1.76,0.29,2.65c0.15,1.59,0.24,3.19,0.24,4.79c0,0.68-0.02,1.35-0.06,2.03
			c-0.02,0.29-0.05,0.58-0.07,0.86c-0.01,0.16-0.04,0.31-0.05,0.47c0.03-0.38,0.09-0.55,0.01-0.11c-0.09,0.5-0.18,1.01-0.33,1.5
			c-0.06,0.22-0.16,0.43-0.22,0.64c-0.11,0.41,0.31-0.51,0.11-0.25c-0.07,0.09-0.1,0.22-0.16,0.32c-0.08,0.14-0.21,0.3-0.27,0.45
			c-0.11,0.28,0.36-0.33,0.2-0.26c-0.08,0.04-0.13,0.17-0.21,0.22c-0.53,0.32,0.54-0.34,0.08-0.06c-0.56,0.35,0.3-0.09,0.12-0.03
			c-0.07,0.03-0.14,0.04-0.21,0.06c-0.47,0.12,0.34-0.14,0.35-0.04c0,0.03-0.49-0.01-0.54,0c0.13-0.03,0.65,0.17,0.08-0.02
			c-0.09-0.03-0.18-0.06-0.27-0.08c-0.35-0.09-0.32-0.32,0.15,0.08c-0.36-0.3-0.92-0.48-1.32-0.75c-0.24-0.16-0.85-0.68-0.27-0.18
			c-0.27-0.23-0.56-0.45-0.82-0.69c-1.31-1.16-2.49-2.47-3.61-3.81c-0.34-0.41-0.67-0.82-1-1.24c-0.08-0.1-0.47-0.6-0.36-0.46
			c0.08,0.1-0.33-0.43-0.45-0.59c-0.8-1.07-1.58-2.15-2.34-3.25c-4.19-6.03-7.86-12.39-11.58-18.71
			c-5.54-9.42-10.82-19.46-18.53-27.33c-1.54-1.57-3.16-3.05-4.81-4.49c-1.02-0.89-2.53-1-3.54,0c-0.91,0.91-1.02,2.64,0,3.54
			c3.29,2.87,6.37,5.92,9.08,9.36c0.29,0.37,0.05,0.07,0-0.01c0.09,0.11,0.17,0.22,0.26,0.34c0.15,0.2,0.3,0.4,0.45,0.6
			c0.35,0.47,0.69,0.95,1.03,1.43c0.68,0.97,1.35,1.96,2,2.95c1.59,2.44,3.11,4.93,4.6,7.43c4.13,6.89,8.06,13.9,12.32,20.71
			c2.97,4.75,6.09,9.46,9.73,13.72c2.84,3.33,9.28,9.81,13.42,4.47c1.51-1.96,1.84-4.6,1.98-7c0.19-3.21-0.12-6.45-0.53-9.64
			c-1.15-8.92-3.3-17.71-5.91-26.3c-2.71-8.92-5.95-17.77-10.17-26.1c-1.96-3.87-4.24-7.46-6.82-10.94
			c-4.98-6.72-10.36-13.11-15.77-19.49c-3.72-4.38-7.34-8.44-10.08-13.5c-0.26-0.48-0.5-0.96-0.74-1.45
			c-0.13-0.27-0.26-0.55-0.37-0.83c0.19,0.44-0.12-0.31-0.17-0.44c-0.4-1.06-0.72-2.16-0.95-3.27c-0.05-0.25-0.1-0.5-0.14-0.75
			c-0.02-0.14-0.05-0.29-0.07-0.43c0.01,0.1,0.05,0.5,0.01,0.01c-0.05-0.59-0.1-1.19-0.11-1.78c-0.01-0.54,0-1.07,0.03-1.61
			c0.02-0.32,0.05-0.63,0.07-0.94c0.01-0.12,0.03-0.24,0.04-0.36c0.03-0.28-0.05,0.28,0.02-0.18c0.56-3.68,1.41-7.38,2.76-10.86
			c0.08-0.21,0.17-0.42,0.25-0.63c0.17-0.42-0.21,0.47,0.05-0.11c0.18-0.39,0.35-0.78,0.53-1.16c0.39-0.8,0.81-1.59,1.25-2.36
			c0.46-0.8,0.96-1.57,1.49-2.33c0.25-0.36,0.5-0.71,0.76-1.06c0.15-0.2,0.3-0.4,0.46-0.61c-0.33,0.42,0.08-0.1,0.21-0.25
			c2.97-3.69,6.47-6.94,10.06-10.02c5.23-4.48,10.74-8.63,16.28-12.73c3.67-2.72,7.37-5.4,11.07-8.07c1.09-0.79,1.63-2.18,0.9-3.42
			C161.63,36.16,159.94,35.55,158.84,36.35L158.84,36.35z"/>
	</g>
</g>
<text transform="matrix(1 0 0 1 60.5635 69.932)" class="st4 st5 st6">detect events</text>
<text transform="matrix(1 0 0 1 151.8873 10.0442)"><tspan x="0" y="0" class="st4 st5 st6">song recording</tspan><tspan x="8.89" y="14.4" class="st4 st5 st6">(or 1D data)</tspan></text>
<text transform="matrix(1 0 0 1 207.6354 101.7382)"><tspan x="0" y="0" class="st4 st5 st6">annotate</tspan><tspan x="-0.19" y="14.4" class="st4 st5 st6">(densely)</tspan></text>
<text transform="matrix(1 0 0 1 255.3456 69.9317)" class="st4 st5 st6">classify</text>
<text transform="matrix(1 0 0 1 0.0179 133.6415)"><tspan x="0" y="0" class="st4 st5 st6">embed</tspan><tspan x="8.66" y="14.4" class="st4 st5 st6">raw</tspan></text>
<text transform="matrix(1 0 0 1 169.8224 250.7313)" class="st4 st5 st6">train</text>
<g>
	<g>
		<line class="st7" x1="187.04" y1="232.53" x2="185.91" y2="48.19"/>
		<g>
			<polygon class="st4" points="185.82,34.07 194.07,53.92 185.91,49.25 177.81,54.02 			"/>
		</g>
	</g>
</g>
<g>
	<g>
		<line class="st7" x1="157.39" y1="29.12" x2="127.58" y2="50.75"/>
		<g>
			<polygon class="st4" points="116.16,59.05 127.48,40.78 128.44,50.13 137.03,53.94 			"/>
		</g>
	</g>
</g>
<text transform="matrix(1 0 0 1 47.9367 206.6142)" class="st4 st5 st6">annotate</text>
<text transform="matrix(1 0 0 1 64.7139 133.6413)"><tspan x="0" y="0" class="st4 st5 st6">embed</tspan><tspan x="-10.84" y="14.4" class="st4 st5 st6">activations</tspan></text>
<text transform="matrix(1 0 0 1 279.7807 128.7834)"><tspan x="0" y="0" class="st4 st5 st6">embed</tspan><tspan x="-10.84" y="14.4" class="st4 st5 st6">activations</tspan></text>
<g>
	<g>
		<line class="st7" x1="72.37" y1="76.23" x2="43.12" y2="108.49"/>
		<g>
			<polygon class="st4" points="33.64,118.96 40.98,98.75 43.83,107.71 53.02,109.67 			"/>
		</g>
	</g>
</g>
<g>
	<g>
		<line class="st7" x1="95.87" y1="76.67" x2="89.99" y2="106.06"/>
		<g>
			<polygon class="st4" points="87.23,119.9 83.15,98.8 90.2,105.02 99.1,101.98 			"/>
		</g>
	</g>
</g>
<g>
	<g>
		<line class="st7" x1="146.8" y1="153.98" x2="171.92" y2="219.81"/>
		<g>
			<polygon class="st4" points="176.95,233 162.26,217.31 171.54,218.82 177.45,211.51 			"/>
		</g>
	</g>
</g>
<g>
	<g>
		<line class="st7" x1="80.63" y1="153.98" x2="77.31" y2="177.25"/>
		<g>
			<polygon class="st4" points="75.31,191.23 70.08,170.38 77.46,176.2 86.17,172.68 			"/>
		</g>
	</g>
</g>
<g>
	<g>
		<line class="st7" x1="89.06" y1="212.51" x2="151.18" y2="233.75"/>
		<g>
			<polygon class="st4" points="164.54,238.32 143.08,239.58 150.18,233.41 148.34,224.19 			"/>
		</g>
	</g>
</g>
<g>
	<g>
		<line class="st7" x1="225.28" y1="30.08" x2="249.64" y2="47.71"/>
		<g>
			<polygon class="st4" points="261.07,55.99 240.19,50.91 248.78,47.09 249.72,37.74 			"/>
		</g>
	</g>
</g>
<g>
	<g>
		<line class="st7" x1="208.43" y1="36.73" x2="223.4" y2="72.66"/>
		<g>
			<polygon class="st4" points="228.83,85.69 213.67,70.45 222.99,71.68 228.68,64.2 			"/>
		</g>
	</g>
</g>
<g>
	<g>
		<line class="st7" x1="231.49" y1="123.82" x2="226.64" y2="152.35"/>
		<g>
			<polygon class="st4" points="224.27,166.27 219.59,145.3 226.82,151.31 235.62,148.02 			"/>
		</g>
	</g>
</g>
<g>
	<g>
		<line class="st7" x1="243.52" y1="214.34" x2="211.23" y2="231.49"/>
		<g>
			<polygon class="st4" points="198.76,238.11 212.52,221.59 212.16,230.99 220.14,235.96 			"/>
		</g>
	</g>
</g>
<text transform="matrix(1 0 0 1 211.8293 183.1117)" class="st4 st5 st6">test</text>
<g>
	<g>
		<line class="st7" x1="281.91" y1="77.28" x2="289.06" y2="98.06"/>
		<g>
			<polygon class="st4" points="293.66,111.42 279.5,95.25 288.72,97.07 294.87,89.96 			"/>
		</g>
	</g>
</g>
<g>
	<g>
		<line class="st7" x1="289.67" y1="151.77" x2="282.28" y2="172.18"/>
		<g>
			<polygon class="st4" points="277.48,185.46 276.6,163.99 282.64,171.19 291.89,169.52 			"/>
		</g>
	</g>
</g>
<text transform="matrix(1 0 0 1 134.828 133.6413)"><tspan x="0" y="0" class="st4 st5 st6">auto</tspan><tspan x="0" y="14.4" class="st4 st5 st6">label</tspan></text>
<g>
	<g>
		<line class="st7" x1="118.93" y1="77.56" x2="132.35" y2="106.58"/>
		<g>
			<polygon class="st4" points="138.27,119.4 122.54,104.75 131.9,105.62 137.3,97.93 			"/>
		</g>
	</g>
</g>
<g>
	<g>
		<line class="st7" x1="27.87" y1="153.54" x2="51.47" y2="180.97"/>
		<g>
			<polygon class="st4" points="60.68,191.67 41.54,181.89 50.78,180.17 53.87,171.29 			"/>
		</g>
	</g>
</g>
<text transform="matrix(1 0 0 1 251.8351 197.1496)"><tspan x="0" y="0" class="st4 st5 st6">correct</tspan><tspan x="-5" y="14.4" class="st4 st5 st6">mistakes</tspan></text>
<g>
	<g>
		<line class="st7" x1="159.66" y1="223.69" x2="109.01" y2="165.93"/>
		<g>
			<polygon class="st4" points="99.7,155.31 118.93,164.91 109.71,166.72 106.71,175.63 			"/>
		</g>
	</g>
</g>
</svg>
